<?xml version="1.0" encoding="UTF-8"?>
<svg version="1.1" xmlns="http://www.w3.org/2000/svg" width="1284" height="918">
<path d="M0 0 C1.29634621 -0.01062721 1.29634621 -0.01062721 2.61888123 -0.02146912 C3.56471069 -0.0189917 4.51054016 -0.01651428 5.48503113 -0.01396179 C6.48400925 -0.01907272 7.48298737 -0.02418365 8.51223755 -0.02944946 C11.83159821 -0.04339943 15.15075195 -0.0423819 18.47013855 -0.04008484 C20.78969397 -0.04397432 23.10924869 -0.04830951 25.42880249 -0.05307007 C30.30889684 -0.06054784 35.18891892 -0.06023374 40.0690155 -0.05497742 C46.26266257 -0.04923948 52.45600504 -0.06596713 58.64960194 -0.08932209 C63.4535286 -0.10422062 68.25738511 -0.1049085 73.0613308 -0.10181236 C75.34021791 -0.10231949 77.6191096 -0.1074402 79.89797401 -0.11762428 C98.47545749 -0.19033052 116.70325336 1.19531787 134.8256073 5.51069641 C135.72005554 5.72049133 136.61450378 5.93028625 137.53605652 6.1464386 C174.99553197 15.24702282 210.05021556 33.68824963 238.2865448 59.97163391 C240.37992913 61.90652857 242.51392937 63.74646547 244.7006073 65.57319641 C254.62803166 74.24192893 263.0890826 84.59171863 270.7631073 95.26069641 C271.21621277 95.88444153 271.66931824 96.50818665 272.13615417 97.15083313 C298.89733427 134.38338033 314.59224725 179.34261963 315.7631073 225.26069641 C315.80306824 226.34093079 315.84302917 227.42116516 315.88420105 228.53413391 C316.40342401 254.25094167 312.01091068 279.95989775 303.7631073 304.26069641 C303.4851532 305.0885968 303.2071991 305.91649719 302.92082214 306.76948547 C295.64479689 328.05935722 285.31080467 348.28002131 271.7631073 366.26069641 C271.32820984 366.84818665 270.89331238 367.43567688 270.44523621 368.04096985 C233.53247122 417.70442337 177.90582608 450.49220468 116.80463123 459.83927858 C99.69289623 462.21019212 82.43998981 462.55316386 65.19474792 462.50361633 C62.96610966 462.50469333 60.73747169 462.50663815 58.50883484 462.5093689 C52.54759971 462.51414709 46.58644137 462.50665607 40.62521553 462.49641585 C34.36108126 462.48754044 28.09694872 462.48939447 21.83280945 462.48977661 C11.34667244 462.48884565 0.86056288 462.48028528 -9.62556458 462.46650696 C-20.40942412 462.45234497 -31.19325812 462.44533993 -41.97712708 462.44599915 C-42.64505459 462.4460391 -43.3129821 462.44607906 -44.00114983 462.44612022 C-44.66795889 462.44616058 -45.33476796 462.44620093 -46.02178335 462.44624251 C-58.96707267 462.44696587 -71.91235154 462.43999653 -84.85763741 462.43079591 C-88.58543062 462.42866242 -92.31322186 462.4279545 -96.04101562 462.42755699 C-101.87215345 462.42655689 -107.70326436 462.42048786 -113.53439331 462.41039085 C-115.678694 462.40745812 -117.82299779 462.40624204 -119.96730042 462.40681839 C-122.87990683 462.40730529 -125.79243657 462.40169167 -128.70503235 462.39440918 C-129.56442083 462.39595778 -130.42380931 462.39750638 -131.30923986 462.39910191 C-137.12271144 462.37487767 -137.12271144 462.37487767 -138.2368927 461.26069641 C-138.34158772 459.45861747 -138.37534352 457.65240001 -138.38228703 455.84729576 C-138.38921166 454.66526711 -138.3961363 453.48323846 -138.40327078 452.26539075 C-138.4058149 450.95015601 -138.40835901 449.63492127 -138.41098022 448.27983093 C-138.41713811 446.88152275 -138.42371376 445.48321636 -138.43067402 444.08491194 C-138.44852676 440.22415827 -138.45993737 436.36340789 -138.4702307 432.50262761 C-138.47984823 429.19557979 -138.49316422 425.88855103 -138.50649966 422.58151643 C-138.55415485 410.73241738 -138.586741 398.88329132 -138.61579895 387.03413391 C-138.61810653 386.09939651 -138.62041411 385.1646591 -138.62279162 384.20159632 C-138.66822408 365.65100186 -138.70676448 347.10039572 -138.73352146 328.54976463 C-138.73951088 324.46854513 -138.74559649 320.38732578 -138.75178528 316.30610657 C-138.75331826 315.29169922 -138.75485124 314.27729187 -138.75643068 313.23214491 C-138.78214473 296.7988978 -138.83902354 280.36590701 -138.90825058 263.93279175 C-138.97869477 247.07181535 -139.01895173 230.21097153 -139.03027099 213.3498503 C-139.03743625 203.87865477 -139.05824266 194.40790439 -139.11329842 184.93685532 C-139.16015488 176.87043124 -139.1800331 168.80451921 -139.16441692 160.73796384 C-139.15729981 156.62132507 -139.16320516 152.50578308 -139.20399475 148.38931656 C-139.24105128 144.61969059 -139.2411185 140.85193134 -139.21187114 137.08225341 C-139.20586945 135.07422457 -139.23931939 133.06619725 -139.27420527 131.0584625 C-139.15568482 122.47893681 -139.15568482 122.47893681 -136.50621784 118.96596837 C-134.49961238 117.19360872 -132.46976128 115.730887 -130.2368927 114.26069641 C-129.12710562 113.28408477 -128.03219276 112.28987941 -126.9634552 111.26850891 C-126.45419495 110.79598694 -125.94493469 110.32346497 -125.42024231 109.83662415 C-124.90598694 109.35781799 -124.39173157 108.87901184 -123.8618927 108.38569641 C-119.19856047 104.06205481 -114.49993094 99.78251189 -109.76423645 95.53804016 C-106.90607067 92.96259866 -104.06979009 90.36383877 -101.2368927 87.76069641 C-96.78356653 83.66900434 -92.30029382 79.61246665 -87.7993927 75.57319641 C-84.93088861 72.98454638 -82.0821262 70.37484495 -79.2368927 67.76069641 C-74.78353783 63.66903534 -70.30029416 59.61246695 -65.7993927 55.57319641 C-62.93088861 52.98454638 -60.0821262 50.37484495 -57.2368927 47.76069641 C-52.78353783 43.66903534 -48.30029416 39.61246695 -43.7993927 35.57319641 C-40.93088861 32.98454638 -38.0821262 30.37484495 -35.2368927 27.76069641 C-30.79301059 23.67773874 -26.32067337 19.62833127 -21.82673645 15.60054016 C-19.89215099 13.85270202 -17.96861382 12.09583439 -16.05329895 10.32710266 C-15.51253723 9.82823547 -14.97177551 9.32936829 -14.41462708 8.81538391 C-13.36088557 7.84191534 -12.30872472 6.86673215 -11.25837708 5.88960266 C-4.8953305 0.01339321 -4.8953305 0.01339321 0 0 Z M-3.2368927 122.26069641 C-3.2368927 194.86069641 -3.2368927 267.46069641 -3.2368927 342.26069641 C55.82528667 345.98182914 55.82528667 345.98182914 118.8881073 336.57319641 C119.62690125 336.3190094 120.36569519 336.06482239 121.12687683 335.80293274 C143.20621231 327.89310432 163.47541753 312.3794009 175.7631073 292.26069641 C176.34318542 291.36350891 176.92326355 290.46632141 177.5209198 289.54194641 C192.30377129 265.73579596 196.48889548 236.6352074 190.5978241 209.38667297 C186.15835922 190.68829633 177.82489709 173.47561371 164.7631073 159.26069641 C164.31596375 158.77117493 163.86882019 158.28165344 163.40812683 157.77729797 C142.52711124 135.16874213 117.92497569 126.56953475 87.7631073 122.26069641 C57.7331073 122.26069641 27.7031073 122.26069641 -3.2368927 122.26069641 Z " fill="#AE1D11" transform="translate(829.2368927001953,193.7393035888672)"/>
<path d="M0 0 C38.29402178 -0.06622443 76.58798924 -0.12158297 114.88205197 -0.15319599 C119.41030037 -0.15694779 123.93854865 -0.16083079 128.46679688 -0.16479492 C129.36823156 -0.16558185 130.26966625 -0.16636878 131.19841714 -0.16717956 C145.76505984 -0.18020825 160.33166677 -0.20384801 174.89828829 -0.23145839 C189.86199719 -0.25958338 204.82568744 -0.27619121 219.78942168 -0.28226548 C229.01146595 -0.28636726 238.23340907 -0.2992888 247.45542218 -0.3237494 C253.79243316 -0.33969432 260.12939239 -0.34438071 266.46642195 -0.34050413 C270.11420107 -0.3385961 273.76180434 -0.34137247 277.40955162 -0.35761642 C308.01997337 -0.48700361 338.17817937 3.35610593 364.19116211 20.98510742 C367.0827302 22.60749216 369.71962086 22.7949763 373 23 C373 24.32 373 25.64 373 27 C374.86052069 28.93898356 374.86052069 28.93898356 377.375 30.6875 C404.04427088 51.10147842 422.18712512 79.31765422 430 112 C430.24556641 113.01054443 430.24556641 113.01054443 430.49609375 114.04150391 C439.0828892 151.11197723 430.13577563 188.83210131 411 221 C405.84150766 228.9868452 399.52054115 236.11076913 393 243 C392.12988281 243.94617188 391.25976562 244.89234375 390.36328125 245.8671875 C366.22307559 271.53977143 330.25799141 286.97128681 295.12909102 288.09155381 C291.92638139 288.12519911 288.72506361 288.12853646 285.52218628 288.12025452 C284.30082698 288.12110894 283.07946768 288.12196337 281.82109749 288.12284368 C278.45740152 288.12419875 275.09376462 288.1211012 271.73007584 288.11606562 C268.09286252 288.11172586 264.45565085 288.11321004 260.81843567 288.1139679 C254.52545622 288.1144909 248.23248718 288.11136745 241.93951035 288.10573006 C232.84105004 288.09758477 223.74259475 288.09499674 214.6441312 288.09374207 C199.88058982 288.0915563 185.11705399 288.08490911 170.35351562 288.07543945 C156.01660184 288.06625303 141.67968957 288.05917822 127.34277344 288.05493164 C126.45826299 288.05466892 125.57375253 288.05440619 124.66243874 288.05413551 C120.22487593 288.05283042 115.78731311 288.05156673 111.34975028 288.05032361 C74.56649526 288.0399658 37.7832505 288.02153547 1 288 C1 254.67 1 221.34 1 187 C8.63680908 186.96036133 16.27361816 186.92072266 24.1418457 186.87988281 C48.59887081 186.75016644 73.05574136 186.60109466 97.51257803 186.43989678 C101.3138043 186.41486014 105.11503168 186.38999442 108.91625977 186.36523438 C109.6729905 186.36030239 110.42972124 186.3553704 111.20938321 186.35028896 C123.4495053 186.27092129 135.68966412 186.20538804 147.92989288 186.14500037 C160.49692397 186.0826912 173.06379968 186.00543856 185.63065594 185.91441989 C193.38014673 185.85876002 201.12952434 185.81464687 208.87916084 185.78547499 C214.82953866 185.7618249 220.77964869 185.71734679 226.72984886 185.66523361 C229.1649862 185.6471337 231.60018405 185.63571366 234.03538513 185.63157272 C237.36880637 185.62489072 240.70117337 185.59384027 244.03437805 185.5569458 C245.46876747 185.56275 245.46876747 185.56275 246.93213445 185.56867146 C256.74045041 185.40715123 264.91906715 182.49001428 272.44140625 176.171875 C274 175 274 175 276 175 C276.27972656 174.41734375 276.55945313 173.8346875 276.84765625 173.234375 C277.93175713 171.13232178 279.13144772 169.21925016 280.4375 167.25 C286.95448484 156.75361734 288.50315913 144.87422157 285.86328125 132.734375 C282.23900342 121.25476195 276.43802961 112.93662934 266 107 C256.89942705 102.61618742 248.66554071 101.85205332 238.70521545 101.84178162 C237.17103719 101.83437465 237.17103719 101.83437465 235.60586542 101.82681805 C232.18654533 101.81148795 228.76724396 101.80309458 225.34790039 101.79467773 C222.89369544 101.78509569 220.43949212 101.77508541 217.98529053 101.76467896 C212.7055675 101.74325409 207.42584696 101.72480303 202.14610481 101.70907402 C194.51255659 101.68632757 186.87903564 101.65819147 179.24551063 101.62875474 C166.85956799 101.58113724 154.47361416 101.5378573 142.08764648 101.49731445 C130.05834076 101.45792975 118.02904496 101.41649643 105.99975586 101.37231445 C105.25783302 101.36959018 104.51591019 101.36686591 103.75150485 101.36405908 C100.02936542 101.35037911 96.30722615 101.33665894 92.58508694 101.32291877 C61.72341088 101.20904581 30.86171476 101.10301703 0 101 C0 67.67 0 34.34 0 0 Z " fill="#D04135" transform="translate(177,368)"/>
<path d="M0 0 C0 152.46 0 304.92 0 462 C-44.22 462 -88.44 462 -134 462 C-135.72925877 460.27074123 -135.13632593 457.94411024 -135.14539433 455.58659935 C-135.15231896 454.4045707 -135.1592436 453.22254205 -135.16637808 452.00469434 C-135.1689222 450.6894596 -135.17146631 449.37422486 -135.17408752 448.01913452 C-135.18024541 446.62082634 -135.18682106 445.22251995 -135.19378132 443.82421553 C-135.21163406 439.96346186 -135.22304467 436.10271148 -135.233338 432.2419312 C-135.24295553 428.93488338 -135.25627152 425.62785462 -135.26960696 422.32082002 C-135.31726214 410.47172097 -135.3498483 398.62259491 -135.37890625 386.7734375 C-135.38121383 385.83870009 -135.38352141 384.90396269 -135.38589892 383.94089991 C-135.43133138 365.39030545 -135.46987178 346.83969931 -135.49662876 328.28906822 C-135.50261818 324.20784871 -135.50870379 320.12662937 -135.51489258 316.04541016 C-135.51642556 315.03100281 -135.51795854 314.01659546 -135.51953798 312.9714485 C-135.54525203 296.53820139 -135.60213084 280.1052106 -135.67135788 263.67209534 C-135.74180207 246.81111894 -135.78205903 229.95027511 -135.79337829 213.08915389 C-135.80054355 203.61795836 -135.82134996 194.14720798 -135.87640572 184.67615891 C-135.92326218 176.60973483 -135.9431404 168.5438228 -135.92752422 160.47726743 C-135.92040711 156.36062866 -135.92631246 152.24508667 -135.96710205 148.12862015 C-136.00415858 144.35899418 -136.0042258 140.59123493 -135.97497844 136.821557 C-135.96897675 134.81352816 -136.00242669 132.80550083 -136.03731257 130.79776609 C-135.91879212 122.2182404 -135.91879212 122.2182404 -133.26932514 118.70527196 C-131.26271968 116.93291231 -129.23286858 115.47019058 -127 114 C-125.89021292 113.02338835 -124.79530006 112.029183 -123.7265625 111.0078125 C-123.21730225 110.53529053 -122.70804199 110.06276855 -122.18334961 109.57592773 C-121.66909424 109.09712158 -121.15483887 108.61831543 -120.625 108.125 C-115.96166777 103.8013584 -111.26303824 99.52181547 -106.52734375 95.27734375 C-103.66917797 92.70190225 -100.83289739 90.10314236 -98 87.5 C-93.54667383 83.40830793 -89.06340112 79.35177023 -84.5625 75.3125 C-81.69399591 72.72384997 -78.8452335 70.11414854 -76 67.5 C-71.54664513 63.40833893 -67.06340146 59.35177054 -62.5625 55.3125 C-59.69399591 52.72384997 -56.8452335 50.11414854 -54 47.5 C-49.54664513 43.40833893 -45.06340146 39.35177054 -40.5625 35.3125 C-37.69399591 32.72384997 -34.8452335 30.11414854 -32 27.5 C-27.55611789 23.41704232 -23.08378067 19.36763486 -18.58984375 15.33984375 C-16.65525829 13.59200561 -14.73172112 11.83513797 -12.81640625 10.06640625 C-12.27564453 9.56753906 -11.73488281 9.06867188 -11.17773438 8.5546875 C-10.12399287 7.58121893 -9.07183202 6.60603574 -8.02148438 5.62890625 C-1.92622979 0 -1.92622979 0 0 0 Z " fill="#C5473D" transform="translate(826,194)"/>
<path d="M0 0 C38.07327716 -0.0662079 76.14649978 -0.12157284 114.21981809 -0.15319599 C118.72060148 -0.15694785 123.22138476 -0.16083084 127.72216797 -0.16479492 C129.06613509 -0.16597532 129.06613509 -0.16597532 130.43725306 -0.16717956 C144.92118213 -0.18021299 159.40507527 -0.2038554 173.88898307 -0.23145839 C188.76454133 -0.25957012 203.64008085 -0.27618843 218.51566458 -0.28226548 C227.68550875 -0.28636999 236.85525134 -0.29930657 246.02506423 -0.3237494 C252.323749 -0.33967789 258.6223817 -0.34438436 264.92108512 -0.34050413 C268.54836411 -0.33859358 272.17546631 -0.34140201 275.80271339 -0.35761642 C303.78150986 -0.47653064 303.78150986 -0.47653064 317 3 C317.81788246 3.21201962 318.63576492 3.42403925 319.4784317 3.64248371 C335.80470688 8.31834137 351.4845136 16.5410157 364 28 C365.25296875 29.05960938 365.25296875 29.05960938 366.53125 30.140625 C389.03166817 49.44653935 403.55524888 78.48189389 406 108 C406.99976692 125.46674499 404.17293817 140.18795094 399 157 C356.43 157 313.86 157 270 157 C268.87873464 152.51493856 269.31134884 152.01351948 271 148 C272.96774768 135.89200421 271.64166811 125.4268932 265 115 C259.17169665 107.72505334 252.22218018 103.63424672 243 102 C239.60176607 101.72726838 236.2206853 101.71437737 232.81274414 101.7215271 C231.81360552 101.7157347 230.8144669 101.7099423 229.78505135 101.70397437 C226.45171985 101.6870282 223.11852727 101.68410248 219.78515625 101.68115234 C217.38991458 101.67185047 214.99467614 101.66168141 212.59944153 101.65071106 C206.77985664 101.62625661 200.96029856 101.61082175 195.14067465 101.59939598 C188.36601532 101.58560608 181.59141091 101.56064581 174.81678772 101.53501268 C162.7364379 101.48959912 150.65607816 101.4529619 138.57568359 101.421875 C126.84422059 101.39166715 115.1127818 101.35730665 103.38134766 101.31738281 C102.65760952 101.31492126 101.93387138 101.31245972 101.18820179 101.30992357 C97.55723731 101.29754854 93.92627312 101.28509209 90.29530907 101.27259517 C60.19690174 101.16910879 30.09847719 101.08150125 0 101 C0 67.67 0 34.34 0 0 Z " fill="#CC1F10" transform="translate(177,194)"/>
</svg>
